<svg xmlns:xlink="http://www.w3.org/1999/xlink" width="36" xmlns="http://www.w3.org/2000/svg" height="50" id="screenshot-df5709ca-8c9c-8043-8001-8d657202d695" viewBox="0 -0 36 50" style="-webkit-print-color-adjust: exact;" fill="none" version="1.1"><g id="shape-df5709ca-8c9c-8043-8001-8d657202d695" rx="0" ry="0"><g id="shape-df5709ca-8c9c-8043-8001-8d657202d699" rx="0" ry="0"><g id="shape-df5709ca-8c9c-8043-8001-8d657202d69a"><g id="fills-df5709ca-8c9c-8043-8001-8d657202d69a"><path rx="0" ry="0" d="M18,7.483C23.866,7.483,28.629,12.208,28.629,18.027C28.629,23.847,23.866,28.571,18,28.571C12.134,28.571,7.371,23.847,7.371,18.027C7.371,12.208,12.134,7.483,18,7.483ZM36,17.777C36,16.819,35.937,16.193,35.937,16.193L35.937,16.193C35.164,7.13,27.423,0,18,0C8.066,0,0,7.925,0,17.687C0,17.784,0.001,17.881,0.002,17.977C0,17.975,0,17.992,0,18.026C0,19.247,0,41.658,0,46.295C0,51.063,5.486,51.404,5.486,46.295C5.486,41.187,5.486,30.971,5.486,30.971L8.229,33.014C8.229,33.014,8.229,35.398,8.229,40.847C8.229,46.295,13.029,46.636,13.029,40.847C13.029,35.057,13.029,35.057,13.029,35.057L14.593,35.057C14.99,35.132,15.391,35.194,15.796,35.243C15.771,35.576,15.771,36.227,15.771,37.441C15.771,40.847,20.229,40.847,20.229,37.441C20.229,36.23,20.229,35.579,20.229,35.243C20.879,35.16,21.512,35.048,22.132,34.905L22.286,35.057C22.286,35.057,22.286,37.441,22.286,40.847C22.286,44.252,26.743,44.252,26.743,40.847C26.743,37.803,26.743,33.944,26.743,33.158C28.573,32.144,30.2,30.845,31.561,29.312C31.543,30.126,31.543,31.767,31.543,35.057C31.543,40.847,36,40.506,36,35.057C36,30.823,36,21.655,36,17.777ZM0.002,17.977L0.002,17.977ZM0.003,18.029C0.003,18.012,0.003,17.994,0.003,18.029Z" style="fill: rgb(253, 223, 29); fill-opacity: 1;"/></g></g><g id="shape-df5709ca-8c9c-8043-8001-8d657202d69b" width="149.51019mm" height="147.42813mm" rx="0" ry="0" style="fill: rgb(0, 0, 0);"><g id="shape-df5709ca-8c9c-8043-8001-8d657202d69d"><g id="fills-df5709ca-8c9c-8043-8001-8d657202d69d"><path rx="0" ry="0" d="M4.621,15.72C6.188,13.03,7.447,12.201,9.35,12.352C11.252,12.504,14.052,14.06,14.353,14.72C15.588,11.892,15.924,9.115,16.745,5.732C16.745,5.732,15.539,2.026,16.705,1.402C17.87,0.778,19.927,0.742,20.945,2.304C21.963,3.867,22.412,8.3,21.742,10.129C21.072,11.958,21.186,11.916,21.186,11.916C21.186,11.916,26.866,6.005,28.695,4.224C30.524,2.444,32.882,1.032,34.69,2.25C36.499,3.467,36.184,6.441,35.246,7.931C34.308,9.421,33.042,11.135,33.042,11.135C33.042,11.135,33.987,12.286,32.064,13.273C30.142,14.26,22.84,17.04,22.84,17.04C22.84,17.04,26.364,17.676,27.034,18.924C27.704,20.171,28.012,22.097,25.848,23.533C23.684,24.968,21.266,24.907,21.266,24.907L18.888,25.35L18.185,26.179C18.185,26.179,17.569,26.864,16.417,26.973C15.264,27.082,14.816,26.845,14.588,26.597C14.36,26.349,13.268,26.573,12.92,25.913C12.572,25.253,11.935,22.697,11.935,22.697C11.935,22.697,10.006,23.89,7.186,23.151C4.366,22.412,3.167,18.712,4.621,15.72ZZ" style="fill: rgb(255, 255, 255);"/></g></g><g id="shape-df5709ca-8c9c-8043-8001-8d657202d69e"><g id="fills-df5709ca-8c9c-8043-8001-8d657202d69e"><path rx="0" ry="0" d="M14.82,32.731C14.751,32.548,14.805,32.087,14.94,31.706C15.075,31.324,15.239,30.135,15.306,29.064L15.426,27.115L14.827,27.045C14.071,26.956,13.271,25.811,13.271,24.818C13.271,23.951,13.487,23.912,13.943,24.695C14.132,25.02,14.483,25.465,14.722,25.685C15.155,26.082,15.157,26.081,15.157,25.227C15.157,24.724,15.287,24.261,15.471,24.105C15.736,23.882,15.838,23.969,16.121,24.664C16.305,25.117,16.58,25.63,16.731,25.805C17.372,26.55,16.126,32.832,15.305,32.993C15.107,33.031,14.89,32.913,14.82,32.731ZZM11.894,30.595C11.23,29.566,11.315,26.443,12.008,26.443C12.126,26.443,12.223,26.738,12.223,27.099C12.223,27.46,12.38,28.353,12.572,29.085C13.055,30.921,12.666,31.789,11.894,30.595ZZM19.504,30.534C19.458,30.33,19.593,29.684,19.805,29.1C20.396,27.472,20.689,25.352,20.353,25.137C19.913,24.853,19.193,24.93,19.063,25.274C18.997,25.45,18.745,25.593,18.504,25.593C18.263,25.593,18.125,25.689,18.196,25.807C18.268,25.925,18.176,26.08,17.991,26.152C17.615,26.298,16.833,25.683,16.833,25.241C16.833,24.896,16.943,24.886,17.492,25.184C17.877,25.393,17.893,25.374,17.671,24.955C17.204,24.069,17.804,23.564,18.532,24.232C18.789,24.467,19.093,24.528,19.533,24.43C20.089,24.306,20.182,24.176,20.303,23.354C20.455,22.328,20.118,19.971,19.661,18.861C19.46,18.375,19.231,18.155,18.924,18.155C18.24,18.155,18.494,17.515,19.36,17.06C20.372,16.528,22.383,16.173,23.58,16.315C24.746,16.453,25.479,16.817,26.466,17.745C26.866,18.12,27.496,18.556,27.867,18.713C28.237,18.87,28.603,19.101,28.679,19.226C28.945,19.662,28.559,20.487,27.938,20.813C27.588,20.996,27.178,21.467,27.007,21.882C26.411,23.329,24.545,24.646,22.754,24.883C21.69,25.023,21.163,25.305,21.36,25.627C21.426,25.736,21.481,26.477,21.481,27.273C21.481,29.152,20.8,30.906,20.071,30.906C19.783,30.906,19.554,30.756,19.504,30.534ZZM22.492,23.799C22.492,23.748,22.397,23.646,22.282,23.574C22.167,23.502,22.072,23.544,22.072,23.668C22.072,23.792,22.167,23.893,22.282,23.893C22.397,23.893,22.492,23.851,22.492,23.799ZZM24.534,20.516C24.417,18.283,24.302,17.827,23.808,17.635C23.278,17.429,23.272,17.632,23.777,18.612C24.148,19.331,24.256,19.896,24.263,21.162C24.269,22.056,24.356,22.736,24.457,22.673C24.558,22.611,24.592,21.64,24.534,20.516ZZM21.953,19.377C21.658,18.056,21.509,17.73,21.2,17.73C20.717,17.73,20.719,17.873,21.216,18.917C21.437,19.38,21.743,20.378,21.897,21.135C22.145,22.351,22.186,22.425,22.249,21.768C22.289,21.359,22.156,20.283,21.953,19.377ZZM26.094,20.173C26.066,19.413,25.688,18.455,25.495,18.651C25.436,18.711,25.506,19.293,25.65,19.946C25.936,21.243,26.138,21.346,26.094,20.173ZZM11.903,25.794C11.548,25.098,11.552,23.361,11.908,23.361C12.107,23.361,13.023,25.622,13.049,26.177C13.074,26.72,12.231,26.438,11.903,25.794ZZM18.974,23.68C18.866,23.388,18.71,22.77,18.626,22.306C18.542,21.843,18.321,21.173,18.134,20.819C17.947,20.464,17.789,20.126,17.782,20.067C17.775,20.009,17.695,19.841,17.603,19.694C17.346,19.283,18.041,19.118,18.645,19.446C19.291,19.797,19.699,20.485,19.379,20.686C19.226,20.781,19.249,21.089,19.453,21.668C19.834,22.755,19.838,23.288,19.469,23.799C19.178,24.2,19.164,24.196,18.974,23.68ZZM6.186,23.166C3.291,22.211,2.37,20.037,3.419,16.636C4.082,14.49,4.949,13.159,6.259,12.277C7.361,11.535,7.395,11.485,7.054,11.102C6.858,10.883,6.293,10.6,5.799,10.474C4.645,10.179,4.144,9.653,5.02,9.655C6.076,9.657,7.095,10.057,7.716,10.715C8.246,11.276,8.463,11.354,9.489,11.354C10.4,11.354,10.834,11.233,11.451,10.808C12.775,9.896,15.38,9.736,15.536,10.559C15.597,10.875,15.436,10.929,14.443,10.929C13.285,10.929,11.594,11.445,11.594,11.798C11.594,11.9,11.969,12.177,12.427,12.414C14.585,13.53,15.397,14.916,15.416,17.516C15.43,19.416,15.097,20.331,13.997,21.415C12.632,22.758,11.176,23.337,8.987,23.404C7.776,23.442,6.762,23.355,6.186,23.166ZZM10.023,21.356L10.651,21.208L9.908,20.879C9.001,20.478,8.116,19.451,7.928,18.583L7.788,17.939L6.933,18.681C6.462,19.089,5.763,19.484,5.378,19.557C4.534,19.717,4.516,19.844,5.231,20.57C5.867,21.215,6.398,21.34,5.838,20.713C5.201,19.998,5.566,19.611,6.808,19.684C7.405,19.72,7.928,19.852,7.969,19.978C8.015,20.122,7.805,20.173,7.409,20.114C7.027,20.057,6.774,20.114,6.774,20.256C6.774,20.386,6.987,20.504,7.246,20.518C7.722,20.543,7.838,20.526,8.503,20.335C8.937,20.211,9.018,20.895,8.619,21.3C8.423,21.498,8.481,21.55,8.88,21.53C9.163,21.516,9.677,21.438,10.023,21.356ZZM13.393,19.27C13.897,18.495,13.909,16.198,13.414,15.244C13.027,14.497,11.837,13.479,11.352,13.479C10.5,13.479,9.289,15.603,9.289,17.096C9.289,18.738,10.037,19.515,11.804,19.707C12.207,19.751,12.644,19.802,12.775,19.821C12.906,19.84,13.184,19.592,13.393,19.27ZZM9.819,17.314C9.587,16.933,9.925,16.212,10.302,16.286C10.77,16.377,10.771,17.382,10.304,17.473C10.114,17.51,9.895,17.439,9.819,17.314ZZM6.007,17.316C7.144,16.281,7.548,14.691,6.902,13.795C6.648,13.443,6.564,13.429,6.258,13.687C5.73,14.131,5.132,15.437,4.804,16.86C4.4,18.617,4.527,18.664,6.007,17.316ZZM5.307,16.482C5.307,16.262,5.448,15.964,5.619,15.82C5.872,15.607,5.956,15.623,6.061,15.9C6.132,16.089,6.136,16.386,6.07,16.562C5.897,17.018,5.308,16.956,5.307,16.482ZZM9.82,13.244C10.28,12.923,10.325,12.844,9.995,12.939C9.699,13.024,9.507,12.958,9.425,12.743C9.244,12.263,8.909,12.348,8.832,12.894C8.743,13.528,8.039,13.662,7.888,13.074C7.825,12.83,7.682,12.63,7.571,12.63C7.333,12.63,7.357,12.691,8.017,13.769C8.518,14.588,8.52,14.589,8.859,14.133C9.045,13.882,9.478,13.482,9.82,13.244ZZM16.833,18.814C16.833,18.662,17.905,18.156,18.227,18.156C18.51,18.156,18.205,18.557,17.767,18.759C17.126,19.055,16.833,19.072,16.833,18.814ZZM16.269,17.618C16.867,17.084,17.462,16.925,17.462,17.3C17.462,17.538,16.359,18.159,15.953,18.149C15.803,18.146,15.945,17.906,16.269,17.618ZZM16.624,16.721C16.624,16.633,17.27,15.692,18.059,14.629C19.233,13.046,19.618,12.316,20.185,10.591C21.41,6.862,21.104,3.29,19.432,1.801C18.567,1.031,17.371,0.923,16.612,1.546C16.037,2.018,16.006,3.176,16.536,4.374C16.867,5.123,16.86,5.198,16.332,6.536C16.031,7.297,15.786,8.043,15.786,8.193C15.786,8.387,15.721,8.399,15.56,8.236C15.4,8.073,15.407,7.637,15.586,6.714C15.804,5.593,15.789,5.298,15.48,4.513C14.471,1.956,15.586,0.04,18.108,0C19.85,-0.027,21.452,1.55,22.084,3.917C22.404,5.114,22.416,7.577,22.108,8.698L21.874,9.549L23.172,8.061C29.139,1.223,31.906,-0.339,34.501,1.669C35.545,2.476,35.995,3.533,36,5.192C36.005,6.902,35.466,8.114,33.948,9.798C33.117,10.719,32.889,11.12,32.936,11.574C33.038,12.562,31.984,13.526,29.679,14.551C27.391,15.569,25.872,16.027,24.797,16.023L24.063,16.022L24.587,15.605C24.875,15.376,25.771,14.933,26.578,14.621C30.713,13.019,32.377,11.944,31.732,11.29C31.302,10.854,31.502,10.383,32.567,9.328C35.111,6.807,35.531,4.298,33.683,2.652C32.143,1.281,30.395,2.041,26.885,5.606C25.555,6.956,23.67,9.065,22.695,10.293C18.461,15.625,16.621,17.574,16.624,16.721ZZ" style="fill: rgb(86, 73, 76); fill-opacity: 1;"/></g></g></g></g></g></svg>