<svg xmlns:xlink="http://www.w3.org/1999/xlink" width="94.04" xmlns="http://www.w3.org/2000/svg" height="50.015" id="screenshot-df5709ca-8c9c-8043-8001-8d66ec90142d" viewBox="-0.02 -0.008 94.04 50.015" style="-webkit-print-color-adjust: exact;" fill="none" version="1.1"><g id="shape-df5709ca-8c9c-8043-8001-8d66ec90142d" width="236.15868mm" height="125.74435mm" rx="0" ry="0" style="fill: rgb(0, 0, 0);"><g id="shape-df5709ca-8c9c-8043-8001-8d66ec90142f"><g id="fills-df5709ca-8c9c-8043-8001-8d66ec90142f"><path rx="0" ry="0" d="M46.744,3C43.242,2.971,38.451,5.516,38.37,10.718C38.822,14.802,42.686,16.98,46.07,16.98C49.454,16.981,52.838,15.665,52.865,10.524C52.891,5.383,50.247,3.029,46.744,3ZZM84.552,18.833C84.294,18.833,84.03,18.837,83.76,18.844C75.129,19.076,50.826,22.676,50.826,22.676C50.826,22.676,49.654,19.704,45.564,19.748C42.605,19.796,41.276,21.961,41.276,21.961L32.631,21.271C32.631,21.271,10.245,20.467,6.436,21.18C2.627,21.893,1.312,22.815,2.299,26.603C3.287,30.392,10.945,31.611,11.864,34.034C12.782,36.457,18.262,37.024,22.181,37.246C26.099,37.468,39.455,29.857,39.455,29.857C39.455,29.857,39.498,37.778,40.553,39.795C41.608,41.812,42.404,46.203,48.363,45.934C54.323,45.664,52.662,28.162,52.662,28.162C52.662,28.162,56.293,30.659,64.528,33.834C72.762,37.009,75.516,35.914,78.242,35.091C80.968,34.267,79.118,31.241,81.351,31.266C83.584,31.291,88.05,28.918,91.502,25.475C94.846,22.139,92.546,18.826,84.552,18.833ZZ" style="fill: rgb(255, 255, 255);"/></g></g><g id="shape-df5709ca-8c9c-8043-8001-8d66ec901430"><g id="fills-df5709ca-8c9c-8043-8001-8d66ec901430"><path rx="0" ry="0" d="M56.566,0.006C54.88,0.01,52.329,0.631,50.345,1.6C47.837,2.826,44.559,2.918,42.995,1.806C40.978,0.373,35.856,-0.124,36.282,1.155C36.366,1.406,37.489,1.886,38.779,2.223C41.28,2.875,41.996,3.297,41.124,3.605C40.828,3.71,39.85,4.473,38.951,5.301C34.214,9.66,35.933,17.469,41.923,18.796L44.076,19.273L41.948,20.553C41.877,20.596,41.808,20.634,41.738,20.674C39.38,20.06,35.857,17.603,35.91,15.585C35.996,12.284,33.867,14.485,34.301,16.324C34.598,18.507,37.273,21.002,39.625,21.598C39.448,21.634,39.311,21.638,39.227,21.603C38.901,21.478,36.253,21.216,33.342,21.022C30.432,20.828,26.434,20.506,24.459,20.306C15.596,19.409,3.557,20.153,1.437,21.729C-0.825,23.41,-0.412,26.603,2.483,29.818C4.219,31.746,7.935,33.891,9.54,33.89C10.085,33.89,10.419,34.252,10.673,35.115C11.155,36.746,13.281,37.885,16.887,38.442C22.521,39.314,28.18,37.838,33.738,34.048C35.698,32.711,37.364,31.617,37.439,31.617C37.49,31.617,37.578,32.397,37.667,33.5C36.738,33.898,35.052,34.802,33.955,36.51C32.381,38.957,32.228,40.223,31.605,42.428C30.982,44.632,32.285,45.845,33.436,42.881C34.462,40.24,36.347,37.753,37.823,35.729C37.962,37.659,38.276,39.838,38.557,40.741C39.277,43.065,41.979,46.219,44.013,47.112C44.897,47.501,45.39,47.753,45.39,48.061C45.39,48.37,46.094,49.425,46.457,49.636C47.674,50.594,47.993,49.515,49.022,47.701C49.022,47.415,49.548,46.963,50.191,46.696C52.733,45.645,53.981,41.843,53.731,36.07C54.365,37.079,55.001,37.626,55.446,39.109C56.033,41.06,56.912,44.445,57.722,43.074C58.532,41.703,57.482,39.421,57.254,38.328C56.712,35.728,54.875,34.252,53.547,33.385C53.514,32.978,53.481,32.564,53.457,32.226C55.002,33.277,55.778,33.226,56.953,35.295C58.223,37.534,59.393,37.794,59.043,36.177C58.712,34.644,56.703,32.248,53.375,30.964C53.364,30.735,53.362,30.588,53.372,30.574C53.409,30.521,54.36,30.988,55.485,31.611C60.136,34.184,65.854,37.488,71.894,37.504C76.718,37.517,78.128,37.006,79.699,34.67C80.709,33.169,80.979,33.003,82.765,32.783C87.197,32.238,94.012,26.995,94.013,23.07C94.014,19.955,91.757,18.605,85.887,18.207C82.404,17.971,72.705,18.711,66.23,19.705C64.359,19.993,61.211,20.425,59.236,20.666C57.261,20.906,54.548,21.35,53.207,21.652L50.769,22.202L49.941,21.146C50.5,20.869,51.241,20.491,52.177,19.977C54.232,18.847,55.335,17.402,55.664,15.64C55.994,13.879,54.256,14.839,53.927,15.483C53.599,16.126,54.021,15.894,52.53,17.667C51.264,19.171,50.936,19.224,48.875,20.127C48.54,19.874,48.196,19.661,47.907,19.541L46.759,19.067L49.494,17.697C51.638,16.623,52.413,16.001,53.082,14.818C54.699,11.953,53.934,7.37,51.396,4.719C50.783,4.078,50.538,3.549,50.758,3.339C51.34,2.785,56.193,1.418,57.581,1.417C59.094,1.417,59.256,0.824,57.91,0.212C57.594,0.068,57.128,0.002,56.566,0.006ZZM45.979,4.075C46.214,4.091,46.383,4.298,46.311,4.725C46.197,5.399,46.446,5.451,47.617,4.996C48.004,4.845,48.279,4.912,48.279,5.156C48.278,5.386,48.115,5.574,47.914,5.574C46.01,6.715,46.13,8.319,45.883,10.469C45.782,11.863,46.33,13.889,47.002,15.616C47.009,15.771,45.736,16.234,44.592,16.235C43.449,16.235,42.234,15.639,42.243,15.483C45.521,12.587,45.401,7.545,44.007,5.669C43.212,4.797,43.599,4.45,44.435,5.285C44.804,5.654,44.947,5.576,45.122,4.908C45.268,4.351,45.678,4.054,45.979,4.075ZZM41.663,6.58C42.022,6.626,42.107,7.252,42.269,7.54C43.454,9.637,42.214,11.818,40.935,12.961C40.129,13.872,39.57,13.018,39.345,10.935C39.231,9.888,39.776,8.548,40.165,7.954C40.94,6.858,41.385,6.543,41.663,6.58ZZM49.607,6.756C49.663,6.756,49.713,6.77,49.754,6.798C50.303,7.204,51.11,9.064,50.896,12.099C50.57,13.279,50.317,13.715,49.487,13.488C48.751,13.287,47.505,12.366,48.118,9.34C48.497,7.468,49.215,6.757,49.607,6.756ZZM84.847,20.395C85.107,20.395,85.332,20.398,85.52,20.407C91.342,20.63,92.054,22.984,89.012,26.073C85.399,29.744,83.137,30.978,76.782,29.84C74.047,29.351,71.655,29.504,72.051,30.143C72.153,30.308,73.606,30.756,75.279,31.137C78.673,31.91,79.036,32.412,77.346,33.999C76.445,34.845,76.052,34.92,72.149,34.981C65.648,35.084,63.397,32.672,56.546,29.473L52.914,27.777L52.28,25.496C51.931,24.242,51.718,23.144,51.807,23.055C51.895,22.966,54.836,22.649,58.342,22.349C61.848,22.049,65.312,21.718,66.04,21.613C69.466,21.119,80.955,20.39,84.847,20.395ZZM45.405,21.092C46.141,21.063,46.586,21.338,47.296,21.995C48.495,23.105,49.603,25.49,49.968,27.747C50.216,29.277,50.184,29.351,49.281,29.352C48.76,29.352,48.107,29.4,47.83,29.46C47.553,29.519,45.861,29.513,44.07,29.446L40.814,29.326L41.002,26.604C41.244,23.093,41.829,21.95,43.643,21.447C44.416,21.232,44.963,21.108,45.405,21.092ZZM45.742,22.231C45.683,22.235,45.613,22.248,45.533,22.274C45.273,22.36,45.013,22.841,44.955,23.343C44.852,24.229,44.867,24.234,45.427,23.525C46.04,22.748,46.154,22.211,45.742,22.231ZZM17.05,22.28C19.387,22.283,22.163,22.321,25.521,22.387C37.993,22.63,39.221,22.711,38.969,23.268C38.817,23.606,38.424,25.194,38.096,26.797C37.558,29.421,37.399,29.735,36.514,29.93C35.974,30.048,34.322,30.897,32.844,31.816C29.451,33.925,26.4,35.211,23.535,35.74C20.73,36.257,18.458,36.224,15.657,35.624C13.122,35.081,12.681,34.751,12.979,33.617C13.137,33.014,13.724,32.632,15.14,32.211C19.433,30.934,18.208,30.303,13.743,31.492L11.411,32.113L8.578,30.789C5.555,29.377,3.472,27.607,2.707,25.8C2.075,24.307,2.351,23.78,3.99,23.351C6.979,22.569,10.04,22.27,17.05,22.28ZZM43.571,23.3C43.343,23.286,42.908,23.712,42.474,24.447C42.105,25.07,41.974,25.58,42.181,25.58C42.579,25.579,43.737,24.111,43.737,23.608C43.737,23.405,43.675,23.306,43.571,23.3ZZM47.328,23.974C47.12,23.922,46.895,24.449,46.828,25.146C46.74,26.065,46.843,26.368,47.206,26.248C47.785,26.055,47.889,24.114,47.328,23.974ZZM44.012,25.668C43.914,25.648,43.725,25.813,43.358,26.146C42.942,26.521,42.602,27.227,42.602,27.714C42.601,28.2,42.766,28.599,42.966,28.599C43.471,28.599,44.114,27.31,44.114,26.3C44.114,25.893,44.109,25.688,44.012,25.668ZZM46.049,25.956C45.72,25.956,45.263,27.202,45.253,28.126C45.25,28.386,45.503,28.598,45.815,28.598C46.211,28.598,46.382,28.199,46.382,27.277C46.382,26.55,46.232,25.955,46.049,25.956ZZM48.272,27.087C48.064,27.087,47.894,27.342,47.894,27.653C47.894,27.965,48.064,28.22,48.272,28.219C48.48,28.219,48.65,27.965,48.65,27.653C48.65,27.342,48.48,27.087,48.272,27.087ZZM41.548,31.596C42.076,31.587,42.839,31.666,43.817,31.841C45.331,32.111,47.462,32.341,48.554,32.351C49.645,32.362,50.538,32.54,50.538,32.748C50.538,33.344,41.58,33.004,40.951,32.384C40.441,31.88,40.669,31.613,41.548,31.596ZZM34.005,34.702C33.826,34.705,33.575,34.778,33.259,34.948C31.994,35.631,31.553,35.943,30.67,37.27C29.787,38.597,31.158,38.681,31.158,38.681C32.705,37.285,32.305,36.788,33.523,35.958C34.436,35.335,34.543,34.695,34.005,34.702ZZM41.508,35.629C41.721,35.632,42.037,35.692,42.505,35.8C43.284,35.981,45.411,36.132,47.23,36.137C49.914,36.145,50.537,36.251,50.537,36.711C50.537,37.127,50.162,37.257,49.119,37.2C48.34,37.157,46.214,37.067,44.395,36.998C41.47,36.888,41.087,36.792,41.087,36.173C41.087,35.788,41.154,35.626,41.508,35.629ZZM41.847,40.052C42.076,40.057,42.445,40.147,42.998,40.305C43.711,40.509,45.693,40.675,47.403,40.675C50.011,40.674,50.477,40.765,50.294,41.24C50.175,41.552,49.967,41.77,49.833,41.727C49.7,41.683,47.863,41.593,45.751,41.526C42.647,41.429,41.868,41.29,41.679,40.799C41.475,40.267,41.465,40.042,41.847,40.052ZZM42.785,43.689L44.061,43.88C44.763,43.986,45.911,44.072,46.613,44.072C47.315,44.072,47.889,44.241,47.889,44.449C47.888,45.013,45.217,44.873,43.92,44.241Z" style="fill: rgb(86, 73, 76); fill-opacity: 1;"/></g></g></g></svg>